<svg xmlns="http://www.w3.org/2000/svg" width="64" height="64" viewBox="0 0 64 64">
  <defs>
    <linearGradient id="g" x1="0" y1="0" x2="1" y2="1">
      <stop offset="0" stop-color="#667eea"/>
      <stop offset="1" stop-color="#764ba2"/>
    </linearGradient>
  </defs>
  <rect width="64" height="64" rx="14" fill="url(#g)"/>
  <path d="M16 36 l7-13 c1.4-2.6 4-4 7-4 h4 c3 0 5.6 1.4 7 4 l7 13" fill="none" stroke="#fff" stroke-width="3.4" stroke-linecap="round"/>
  <path d="M14 36 h36 v8 a3 3 0 0 1-3 3 h-3 a3 3 0 0 1-3-3 v-2 H23 v2 a3 3 0 0 1-3 3 h-3 a3 3 0 0 1-3-3 z" fill="#fff"/>
  <circle cx="23" cy="45" r="3.4" fill="#1a1a2e"/>
  <circle cx="41" cy="45" r="3.4" fill="#1a1a2e"/>
</svg>
